<svg width="61" height="61" viewBox="0 0 61 61" fill="none" xmlns="http://www.w3.org/2000/svg">
<path d="M25.637 46.6618C26.5216 41.3988 30.5532 38.0604 36.6629 38.0604H52.5397C58.4653 38.0604 59.724 34.1696 59.724 34.1696C58.8393 39.4326 56.4287 42.771 50.319 42.771H34.0326C27.2935 42.771 25.637 46.6618 25.637 46.6618Z" fill="#DF2325"/>
<path d="M52.2662 43.7749C50.9184 45.8005 49.3568 45.9787 46.394 45.9787C43.4312 45.9787 39.9519 46.0441 35.1366 45.9787C29.9532 45.9074 25.9513 48.2479 25.6248 53.3386C26.9726 51.313 28.7241 50.9447 31.6869 50.9447C34.6497 50.9447 36.431 50.8794 41.2462 50.9447C46.4237 51.0219 50.4731 48.735 52.2662 43.7749Z" fill="#EE4523"/>
<path d="M25.6365 57.5621C25.6365 55.5365 28.4093 54.4494 31.7224 54.4494C35.0355 54.4494 41.448 54.889 44.1733 52.9644C43.4311 55.186 36.6624 60.2767 29.8996 60.2767C26.8358 60.2767 25.6365 58.7976 25.6365 57.5621Z" fill="#FE5F3E"/>
<path d="M13.6086 25.7884C18.8692 26.6735 22.2061 30.7069 22.2061 36.8193V52.7034C22.2061 58.6317 26.0951 59.891 26.0951 59.891C20.8345 59.0059 17.4977 56.5942 17.4977 50.4817V34.1878C17.4977 27.4398 13.6086 25.7884 13.6086 25.7884Z" fill="#172C4F"/>
<path d="M16.4927 52.4238C14.468 51.0754 14.2899 49.5131 14.2899 46.549C14.2899 43.5848 14.2246 40.1039 14.2899 35.2864C14.3611 30.1006 12.0218 26.0969 6.93335 25.7702C8.95803 27.1186 9.32615 28.871 9.32615 31.8351C9.32615 34.7993 9.39146 36.5813 9.32615 41.3988C9.2549 46.5846 11.5349 50.6299 16.4927 52.4238Z" fill="#264A74"/>
<path d="M2.71936 25.7899C4.74404 25.7899 5.8306 28.564 5.8306 31.8786C5.8306 35.1873 5.39123 41.6086 7.31497 44.3352C5.08841 43.5926 0 36.8208 0 30.049C0 26.9839 1.48437 25.7899 2.71936 25.7899Z" fill="#345A87"/>
<path d="M34.4802 13.7533C33.5955 19.0163 29.564 22.3547 23.4543 22.3547H7.57155C1.64595 22.3547 0.387207 26.2455 0.387207 26.2455C1.27189 20.9825 3.68251 17.6441 9.79217 17.6441H26.0787C32.8236 17.6441 34.4802 13.7533 34.4802 13.7533Z" fill="#DF2325"/>
<path d="M7.85034 16.6402C9.19815 14.6146 10.7597 14.4364 13.7225 14.4364C16.6853 14.4364 20.1647 14.371 24.98 14.4364C30.1634 14.5076 34.1652 12.1672 34.4918 7.07648C33.144 9.10208 31.3924 9.47037 28.4296 9.47037C25.4668 9.47037 23.6856 9.53571 18.8703 9.47037C13.6928 9.39315 9.64346 11.6801 7.85034 16.6402Z" fill="#EE4523"/>
<path d="M34.4811 2.85302C34.4811 4.87863 31.7083 5.96568 28.3952 5.96568C25.0821 5.96568 18.6696 5.52611 15.9443 7.45073C16.6865 5.2291 23.4552 0.138367 30.218 0.138367C33.2818 0.138367 34.4811 1.61747 34.4811 2.85302Z" fill="#FE5F3E"/>
<path d="M46.5082 34.627C41.2476 33.7419 37.9108 29.7085 37.9108 23.5961V7.71204C37.9108 1.78374 34.0217 0.524414 34.0217 0.524414C39.2823 1.4095 42.6192 3.82121 42.6192 9.93366V26.2276C42.6192 32.9756 46.5082 34.627 46.5082 34.627Z" fill="#172C4F"/>
<path d="M43.6226 7.99133C45.6472 9.33975 45.8254 10.902 45.8254 13.8662C45.8254 16.8303 45.8907 20.3113 45.8254 25.1288C45.7541 30.3145 48.0935 34.3182 53.1819 34.6449C51.1572 33.2965 50.7891 31.5441 50.7891 28.58C50.7891 25.6158 50.7238 23.8338 50.7891 19.0163C50.8603 13.8305 48.5803 9.78527 43.6226 7.99133Z" fill="#264A74"/>
<path d="M57.3969 34.627C55.3722 34.627 54.2856 31.853 54.2856 28.5383C54.2856 25.2297 54.725 18.8083 52.8013 16.0818C55.0219 16.8243 60.1103 23.5961 60.1103 30.362C60.1162 33.4331 58.6319 34.627 57.3969 34.627Z" fill="#345A87"/>
</svg>
